<svg xmlns="http://www.w3.org/2000/svg" width="24.14" height="23.299" viewBox="0 0 24.14 23.299">
  <g id="loan_1_" data-name="loan (1)" transform="translate(0 -8.085)">
    <g id="Group_12" data-name="Group 12" transform="translate(0 8.085)">
      <g id="Group_11" data-name="Group 11" transform="translate(0 0)">
        <path id="Path_178" data-name="Path 178" d="M23.58,14.57l-.022-.015-2.841-1.893H20.8V9.75a.416.416,0,0,0-.416-.416H18.3a.416.416,0,0,0-.416.416v1.025L13.959,8.154a.416.416,0,0,0-.462,0l-9.6,6.4A1.281,1.281,0,1,0,5.3,16.7l.022-.015L6.656,15.8v8.1H5.824a.416.416,0,0,0-.416-.416H2.08a.416.416,0,0,0-.416.416H0v.832H1.664v4.16H0v.832H1.664a.416.416,0,0,0,.416.416H5.408a.416.416,0,0,0,.416-.416V29.56L8.93,30.85a7.2,7.2,0,0,0,5.294.058l6.427-2.45a1.513,1.513,0,0,0,.85-.81,1.539,1.539,0,0,0,.025-1.194,1.51,1.51,0,0,0-.724-.793V15.8l1.336.891A1.281,1.281,0,1,0,23.58,14.57ZM4.992,29.3H2.5V24.31h2.5ZM18.721,10.166h1.248v2l-1.248-.832ZM20.74,27.312a.689.689,0,0,1-.385.369l-6.427,2.45a6.365,6.365,0,0,1-4.681-.051L5.824,28.659V24.726H6.879a8.927,8.927,0,0,1,3.974.939,2.953,2.953,0,0,0,1.313.31h3.227a.624.624,0,0,1,.138,1.232c-.054,0-.108.016-.163.016H10.4v.832h4.992l.025,0a2.573,2.573,0,0,0,.96-.2l3.478-1.477a.661.661,0,0,1,.519,0,.69.69,0,0,1,.374.388A.715.715,0,0,1,20.74,27.312Zm-5.347-2.17H12.166a2.122,2.122,0,0,1-.941-.222,9.767,9.767,0,0,0-3.737-1.006V15.241l6.24-4.16,6.24,4.16V25.5a1.5,1.5,0,0,0-.438.1l-2.7,1.146a1.438,1.438,0,0,0,.015-.153A1.456,1.456,0,0,0,15.393,25.142Zm7.667-9.125h0a.445.445,0,0,1-.462-.022l-8.639-5.758a.416.416,0,0,0-.462,0L4.859,16a.45.45,0,0,1-.5-.749L13.729,9,23.1,15.248a.449.449,0,0,1,.2.374A.442.442,0,0,1,23.06,16.017Z" transform="translate(0 -8.085)" fill="#2b2f8e"/>
      </g>
    </g>
    <g id="Group_14" data-name="Group 14" transform="translate(3.328 27.639)">
      <g id="Group_13" data-name="Group 13">
        <rect id="Rectangle_7" data-name="Rectangle 7" width="0.832" height="0.832" fill="#2b2f8e"/>
      </g>
    </g>
    <g id="Group_16" data-name="Group 16" transform="translate(12.48 16.406)">
      <g id="Group_15" data-name="Group 15">
        <path id="Path_179" data-name="Path 179" d="M242.442,171.145a1.183,1.183,0,0,0-.6-.708l-.811-.406a.355.355,0,0,1,.158-.673h.121a.356.356,0,0,1,.355.355v.061h.832v-.061a1.185,1.185,0,0,0-.832-1.127v-.476h-.832v.476a1.183,1.183,0,0,0-.176,2.189l.811.406a.355.355,0,0,1-.159.673h-.121a.356.356,0,0,1-.355-.355v-.061H240v.061a1.185,1.185,0,0,0,.832,1.127v.476h.832v-.476A1.183,1.183,0,0,0,242.442,171.145Z" transform="translate(-239.999 -168.11)" fill="#2b2f8e"/>
      </g>
    </g>
    <g id="Group_18" data-name="Group 18" transform="translate(9.568 14.742)">
      <g id="Group_17" data-name="Group 17">
        <path id="Path_180" data-name="Path 180" d="M188.16,136.11a4.16,4.16,0,1,0,4.16,4.16A4.165,4.165,0,0,0,188.16,136.11Zm0,7.488a3.328,3.328,0,1,1,3.328-3.328A3.328,3.328,0,0,1,188.16,143.6Z" transform="translate(-184 -136.11)" fill="#2b2f8e"/>
      </g>
    </g>
    <g id="Group_20" data-name="Group 20" transform="translate(15.393 18.486)">
      <g id="Group_19" data-name="Group 19">
        <rect id="Rectangle_8" data-name="Rectangle 8" width="0.832" height="0.832" fill="#2b2f8e"/>
      </g>
    </g>
    <g id="Group_22" data-name="Group 22" transform="translate(11.232 18.486)">
      <g id="Group_21" data-name="Group 21">
        <rect id="Rectangle_9" data-name="Rectangle 9" width="0.832" height="0.832" fill="#2b2f8e"/>
      </g>
    </g>
  </g>
</svg>
